<?xml version="1.0" encoding="UTF-8"?>
<svg xmlns="http://www.w3.org/2000/svg" width="60" height="60" viewBox="0 0 60 60" fill="none">
  <g clip-path="url(#clip0_3475_4935)">
    <path
      d="M8.95 52.99H44.5975L42.895 47.4775L46.9675 50.9725L50.7 54.3175L57.5 60V6.1875C57.33 2.8425 54.45 0 50.88 0L8.9625 0.0075C5.395 0.0075 2.5 2.855 2.5 6.2V46.8C2.5 50.3275 5.39 52.99 8.95 52.99ZM35.32 14.2075L35.2375 14.2375L35.2675 14.2075H35.32ZM16.2425 17.38C20.825 14.045 25.0725 14.205 25.0725 14.205L25.415 14.5425C19.8075 15.88 17.265 18.385 17.265 18.385C17.265 18.385 17.945 18.0525 19.1325 17.545C26.685 14.575 34.9325 14.79 42.5675 18.55C42.5675 18.55 40.02 16.2075 34.7575 14.7075L35.2225 14.25C35.95 14.2525 39.8 14.3875 43.92 17.4C43.92 17.4 48.53 25.275 48.53 34.95C48.3775 34.765 45.67 39.115 38.7025 39.265C38.7025 39.265 37.5225 37.93 36.6825 36.765C40.7575 35.595 42.2825 33.255 42.2825 33.255C40.945 34.0975 39.725 34.5975 38.735 35.0975C37.2125 35.7675 35.6875 36.0975 34.165 36.435C26.955 37.605 22.9075 35.6475 19.0825 34.095L17.775 33.43C17.775 33.43 19.2975 35.77 23.21 36.94C22.1825 38.1125 21.165 39.445 21.165 39.445C14.2 39.28 11.66 34.93 11.66 34.93C11.66 25.24 16.2425 17.38 16.2425 17.38Z"
      fill="url(#paint0_linear_3475_4935)"></path>
    <path
      d="M35.7699 31.9297C37.5474 31.9297 38.9949 30.4297 38.9949 28.5797C38.9949 26.7422 37.5549 25.2422 35.7699 25.2422V25.2497C33.9999 25.2497 32.5499 26.7447 32.5449 28.5947C32.5449 30.4297 33.9924 31.9297 35.7699 31.9297Z"
      fill="url(#paint1_linear_3475_4935)"></path>
    <path
      d="M24.225 31.9297C26.0025 31.9297 27.45 30.4297 27.45 28.5797C27.45 26.7422 26.0125 25.2422 24.235 25.2422L24.225 25.2497C22.4475 25.2497 21 26.7447 21 28.5947C21 30.4297 22.4475 31.9297 24.225 31.9297Z"
      fill="url(#paint2_linear_3475_4935)"></path>
  </g>
  <defs>
    <linearGradient id="paint0_linear_3475_4935" x1="30" y1="0" x2="30" y2="60" gradientUnits="userSpaceOnUse">
      <stop stop-color="#FAE8B2"></stop>
      <stop offset="1" stop-color="#D1F2FF"></stop>
    </linearGradient>
    <linearGradient id="paint1_linear_3475_4935" x1="35.7699" y1="25.2422" x2="35.7699" y2="31.9297"
                    gradientUnits="userSpaceOnUse">
      <stop stop-color="#FAE8B2"></stop>
      <stop offset="1" stop-color="#D1F2FF"></stop>
    </linearGradient>
    <linearGradient id="paint2_linear_3475_4935" x1="24.225" y1="25.2422" x2="24.225" y2="31.9297"
                    gradientUnits="userSpaceOnUse">
      <stop stop-color="#FAE8B2"></stop>
      <stop offset="1" stop-color="#D1F2FF"></stop>
    </linearGradient>
    <clipPath id="clip0_3475_4935">
      <rect width="60" height="60" fill="white"></rect>
    </clipPath>
  </defs>
</svg>
