<?xml version="1.0" encoding="UTF-8"?> <svg xmlns="http://www.w3.org/2000/svg" width="70" height="64" viewBox="0 0 70 64" fill="none"> <path d="M43.1373 59.2714V38.2983H49.25L50.1819 31.1643H43.115C43.115 30.8823 43.115 30.6668 43.115 30.4514C43.115 28.97 43.0949 27.4885 43.1417 26.0093C43.1952 24.2614 44.1293 23.3019 45.8815 23.2153C47.1612 23.1509 48.443 23.182 49.7248 23.1709H50.3535V16.7899C49.2924 16.7188 48.2424 16.6189 47.1901 16.5833C45.5405 16.5278 43.8841 16.4256 42.2545 16.8254C38.7032 17.6961 36.3112 20.228 35.9233 23.8483C35.7003 26.0093 35.7828 28.2059 35.7293 30.387C35.7293 30.6224 35.7293 30.8578 35.7293 31.1666H29.6456C29.6255 31.362 29.5987 31.5042 29.5987 31.6441C29.5987 33.6808 29.5987 35.7152 29.5987 37.7519C29.5987 38.1628 29.7147 38.2938 30.1338 38.2872C31.7678 38.265 33.4042 38.2872 35.0382 38.2872H35.6914V60.3331C24.915 60.9572 11.0866 53.5434 7.49746 38.6248C6.60784 34.9686 6.45643 31.1727 7.05204 27.4577C7.64765 23.7427 8.9784 20.1827 10.967 16.9845C12.9555 13.7864 15.5622 11.0139 18.6356 8.82808C21.709 6.64231 25.1878 5.08689 28.8698 4.25219C44.1672 0.731866 59.5427 10.3045 63.036 25.6518C66.5739 41.1989 56.8452 55.4313 43.1373 59.2714Z" fill="url(#paint0_linear_552_4981)"></path> <defs> <linearGradient id="paint0_linear_552_4981" x1="35.2313" y1="3.52344" x2="35.2313" y2="60.3694" gradientUnits="userSpaceOnUse"> <stop stop-color="#FAE8B2"></stop> <stop offset="1" stop-color="#D1F2FF"></stop> </linearGradient> </defs> </svg> 