<?xml version="1.0" encoding="UTF-8"?> <svg xmlns="http://www.w3.org/2000/svg" width="73" height="68" viewBox="0 0 73 68" fill="none"> <path d="M37.4462 60.3356C33.5242 60.3356 29.6023 60.3356 25.6825 60.3356C20.4721 60.321 16.3054 58.2373 13.2788 54.0324C11.4966 51.5589 10.6725 48.7474 10.6683 45.7119C10.6683 37.7646 10.6411 29.8173 10.6683 21.8679C10.6955 15.3989 14.6907 9.99566 20.903 7.94508C22.3818 7.47228 23.928 7.23983 25.4817 7.25672C33.4468 7.25672 41.412 7.25672 49.3772 7.25672C55.9513 7.27123 61.4629 11.2397 63.5212 17.4163C63.9945 18.8829 64.2276 20.4153 64.2114 21.955C64.2114 29.8505 64.2867 37.746 64.1884 45.6414C64.111 51.9404 61.0509 56.4562 55.3113 59.1392C53.4288 60.0183 51.3936 60.3335 49.3144 60.3335L37.4462 60.3356ZM52.1131 33.8106C52.1424 25.8198 45.6184 19.3259 37.4713 19.2492C29.4287 19.1725 22.7834 25.7327 22.7541 33.7795C22.7248 41.7704 29.2509 48.2643 37.396 48.341C45.4406 48.4115 52.0859 41.8575 52.1152 33.8106H52.1131ZM53.0774 13.96C50.6677 13.8874 48.6262 15.8468 48.5447 18.3141C48.4652 20.6716 50.4878 22.7242 52.9581 22.7947C55.3322 22.8631 57.3507 20.9079 57.449 18.4593C57.5368 16.0666 55.5686 14.0346 53.0774 13.96Z" fill="url(#paint0_linear_3475_4939)"></path> <path d="M37.453 22.3828C39.7316 22.3849 41.9583 23.057 43.8513 24.3141C45.7443 25.5712 47.2185 27.3567 48.0873 29.4447C48.9561 31.5327 49.1805 33.8293 48.7319 36.0437C48.2834 38.2581 47.1822 40.2909 45.5676 41.8846C43.9531 43.4784 41.8978 44.5615 39.662 44.9968C37.4261 45.4322 35.1102 45.2002 33.0075 44.3303C30.9047 43.4603 29.1096 41.9916 27.8493 40.1099C26.5891 38.2282 25.9203 36.0181 25.9278 33.7595C25.9405 30.7378 27.1604 27.8442 29.3204 25.7121C31.4804 23.5799 34.4046 22.3828 37.453 22.3828Z" fill="url(#paint1_linear_3475_4939)"></path> <path d="M52.9996 17.0938C53.1694 17.0935 53.3376 17.1264 53.4946 17.1907C53.6515 17.255 53.7941 17.3494 53.9142 17.4684C54.0343 17.5875 54.1295 17.7288 54.1944 17.8844C54.2593 18.04 54.2925 18.2068 54.2922 18.3751C54.2862 18.715 54.1463 19.0392 53.9024 19.2782C53.6585 19.5173 53.33 19.6523 52.987 19.6544C52.6538 19.6379 52.3386 19.4994 52.1025 19.2657C51.8664 19.0321 51.7262 18.7199 51.709 18.3896C51.7095 18.049 51.8451 17.7221 52.0865 17.4797C52.328 17.2373 52.6559 17.0986 52.9996 17.0938Z" fill="url(#paint2_linear_3475_4939)"></path> <defs> <linearGradient id="paint0_linear_3475_4939" x1="37.4476" y1="7.25586" x2="37.4476" y2="60.3356" gradientUnits="userSpaceOnUse"> <stop stop-color="#FAE8B2"></stop> <stop offset="1" stop-color="#D1F2FF"></stop> </linearGradient> <linearGradient id="paint1_linear_3475_4939" x1="37.4425" y1="22.3828" x2="37.4425" y2="45.2109" gradientUnits="userSpaceOnUse"> <stop stop-color="#FAE8B2"></stop> <stop offset="1" stop-color="#D1F2FF"></stop> </linearGradient> <linearGradient id="paint2_linear_3475_4939" x1="53.0006" y1="17.0938" x2="53.0006" y2="19.6544" gradientUnits="userSpaceOnUse"> <stop stop-color="#FAE8B2"></stop> <stop offset="1" stop-color="#D1F2FF"></stop> </linearGradient> </defs> </svg> 