<?xml version="1.0" encoding="UTF-8"?> <svg xmlns="http://www.w3.org/2000/svg" width="57" height="57" viewBox="0 0 57 57" fill="none"> <g clip-path="url(#clip0_3271_4493)"> <path d="M42.6557 18.2397C38.1265 17.8595 33.9732 20.5196 31.7093 24.3195V18.9997H20.3847V57H32.0861V37.9994C32.0861 33.0594 33.2183 28.1193 39.2582 28.1193C45.2986 28.1193 45.2986 33.8189 45.2986 38.3792V56.9995H57L56.6228 36.479C56.6228 26.2192 54.7347 18.2393 42.6557 18.2393V18.2397ZM1.13219 57H12.8344V18.9997H1.13219V57ZM6.79447 0C3.0202 0 0 3.03988 0 6.83973C0 10.64 3.01976 13.6795 6.79447 13.6795C10.5692 13.6795 13.5894 10.64 13.5894 6.83973C13.5894 3.03988 10.5696 0 6.79447 0Z" fill="url(#paint0_linear_3271_4493)"></path> </g> <defs> <linearGradient id="paint0_linear_3271_4493" x1="28.5" y1="52.8629" x2="28.5" y2="-14.7097" gradientUnits="userSpaceOnUse"> <stop stop-color="#DDF0E9"></stop> <stop offset="1" stop-color="#F7E9B8"></stop> </linearGradient> <clipPath id="clip0_3271_4493"> <rect width="57" height="57" fill="white"></rect> </clipPath> </defs> </svg> 