<?xml version="1.0" encoding="UTF-8"?> <svg xmlns="http://www.w3.org/2000/svg" width="74" height="42" viewBox="0 0 74 42" fill="none"> <g clip-path="url(#clip0_3475_4952)"> <path d="M41.3531 21.0934C41.3038 32.6793 31.9697 42.0757 20.6204 42C9.10229 41.9244 -0.0676537 32.4618 0.000376081 20.7198C0.06606 9.33021 9.4049 -0.0188871 20.6955 2.86533e-05C32.1714 0.0189444 41.4024 9.43661 41.3531 21.0934Z" fill="url(#paint0_linear_3475_4952)"></path> <path d="M43.6445 22.2708C43.7736 16.0711 44.4327 11.3209 46.7809 7.01286C47.6582 5.43888 48.7805 4.01709 50.105 2.80175C52.4673 0.619348 55.8735 0.836878 58.3014 3.05475C61.1821 5.6864 62.5897 9.13142 63.3966 12.8224C65.0575 20.4028 64.8041 27.8604 61.2713 34.9206C60.4854 36.4954 59.2703 37.9424 57.9871 39.153C55.6412 41.3614 52.228 41.1676 49.7954 38.9757C46.8912 36.3582 45.4907 32.9061 44.6744 29.2246C44.0668 26.5102 43.8486 23.7131 43.6445 22.2708Z" fill="url(#paint1_linear_3475_4952)"></path> <path d="M66.4688 20.96C66.6822 16.3682 66.9825 11.8166 68.0076 7.34538C68.2066 6.42276 68.5219 5.52962 68.946 4.68773C69.2275 4.14863 69.8843 3.38018 70.269 3.4322C70.8086 3.50313 71.4303 4.16518 71.7118 4.72792C72.1818 5.67884 72.5212 6.68989 72.7205 7.73316C74.4317 16.4882 74.4317 25.4956 72.7205 34.2506C72.4873 35.3664 72.1145 36.4477 71.6109 37.4687C71.3763 37.9652 70.7406 38.5918 70.2995 38.58C69.8585 38.5682 69.1712 37.9298 69.0164 37.4309C68.3736 35.3785 67.6909 33.3025 67.3977 31.1816C66.9262 27.7957 66.762 24.3672 66.4688 20.96Z" fill="url(#paint2_linear_3475_4952)"></path> </g> <defs> <linearGradient id="paint0_linear_3475_4952" x1="20.6766" y1="0" x2="20.6766" y2="42.0005" gradientUnits="userSpaceOnUse"> <stop stop-color="#FAE8B2"></stop> <stop offset="1" stop-color="#D1F2FF"></stop> </linearGradient> <linearGradient id="paint1_linear_3475_4952" x1="54.0152" y1="1.27344" x2="54.0152" y2="40.7174" gradientUnits="userSpaceOnUse"> <stop stop-color="#FAE8B2"></stop> <stop offset="1" stop-color="#D1F2FF"></stop> </linearGradient> <linearGradient id="paint2_linear_3475_4952" x1="70.2363" y1="3.42969" x2="70.2363" y2="38.5801" gradientUnits="userSpaceOnUse"> <stop stop-color="#FAE8B2"></stop> <stop offset="1" stop-color="#D1F2FF"></stop> </linearGradient> <clipPath id="clip0_3475_4952"> <rect width="74" height="42" fill="white"></rect> </clipPath> </defs> </svg> 