<?xml version="1.0" encoding="UTF-8"?> <svg xmlns="http://www.w3.org/2000/svg" width="74" height="65" viewBox="0 0 74 65" fill="none"> <path d="M29.8296 55.5518C29.8923 55.2701 29.9226 55.099 29.968 54.9321C31.0932 50.8487 32.2219 46.7667 33.3543 42.6861C33.4392 42.4133 33.5875 42.1646 33.7871 41.9603C39.5008 35.9644 45.2188 29.9736 50.9412 23.9878C51.1706 23.7588 51.3811 23.5118 51.5709 23.2489C51.7635 22.973 51.8626 22.6424 51.8537 22.3058C51.8447 21.9692 51.7281 21.6444 51.5211 21.3791C51.3157 21.1125 51.0313 20.918 50.7086 20.8234C50.386 20.7288 50.0417 20.739 49.7252 20.8526C49.4726 20.9461 49.2287 21.0614 48.996 21.1971C39.7164 26.3494 30.4405 31.5068 21.1681 36.6693C21.0155 36.7699 20.8389 36.8281 20.6564 36.838C20.4739 36.8479 20.2921 36.8091 20.1295 36.7256C17.1003 35.3801 14.071 34.0649 11.0418 32.7238C8.93647 31.7899 8.22893 29.4564 9.50121 27.6538C9.98805 26.9583 10.6826 26.5704 11.4745 26.3126C21.7249 22.9283 31.9774 19.5382 42.2321 16.1423L59.5637 10.4201C61.7859 9.68778 63.8111 10.7646 64.192 12.9291C64.2699 13.4638 64.242 14.0086 64.1097 14.5324C60.9204 28.1723 57.7209 41.8101 54.5114 55.4456C53.8623 58.2146 51.084 59.1766 48.8748 57.3805C45.5859 54.7068 42.3086 52.0187 39.0428 49.3161C38.7139 49.0453 38.517 49.0431 38.1773 49.2966C35.5916 51.2596 32.9843 53.1966 30.3878 55.1466C30.2407 55.2615 30.0827 55.372 29.8296 55.5518Z" fill="url(#paint0_linear_3475_4948)"></path> <path d="M41.3362 29.3271L40.1094 30.6271C37.1191 33.7601 34.1158 36.8801 31.1493 40.0348C30.7633 40.4554 30.4797 40.9596 30.3206 41.5081C29.1024 45.7981 27.9232 50.1098 26.7223 54.4171C26.6942 54.5168 26.6552 54.6121 26.5643 54.8743C26.2701 53.5201 26.0061 52.3241 25.7486 51.1281C24.9321 47.3393 24.115 43.5506 23.2971 39.7618C23.2257 39.4303 23.2257 39.2158 23.5827 39.0186C29.3844 35.8105 35.1818 32.5937 40.9748 29.3683C41.0636 29.3184 41.1609 29.2816 41.254 29.2383L41.3362 29.3271Z" fill="url(#paint1_linear_3475_4948)"></path> <defs> <linearGradient id="paint0_linear_3475_4948" x1="36.5511" y1="10.1914" x2="36.5511" y2="58.2937" gradientUnits="userSpaceOnUse"> <stop stop-color="#FAE8B2"></stop> <stop offset="1" stop-color="#D1F2FF"></stop> </linearGradient> <linearGradient id="paint1_linear_3475_4948" x1="32.298" y1="29.2383" x2="32.298" y2="54.8743" gradientUnits="userSpaceOnUse"> <stop stop-color="#FAE8B2"></stop> <stop offset="1" stop-color="#D1F2FF"></stop> </linearGradient> </defs> </svg> 