<svg width="68" height="68" viewBox="0 0 68 68" fill="none" xmlns="http://www.w3.org/2000/svg">
<path fill-rule="evenodd" clip-rule="evenodd" d="M68 34C68 52.7777 52.7777 68 34 68C15.2223 68 0 52.7777 0 34C0 15.2223 15.2223 0 34 0C52.7777 0 68 15.2223 68 34ZM52.8388 22.5617C53.0503 22.5617 53.0503 22.5668 53.0503 22.7632C53.0503 22.9057 53.0589 23.4522 53.0705 24.1903C53.0965 25.8525 53.1379 28.4865 53.1309 29.669C53.1309 30.0871 53.0755 30.0871 52.6776 30.0871C51.4153 30.082 50.1578 29.9316 48.93 29.6388C46.8314 29.1566 44.8356 28.3038 43.0367 27.1202C43.0099 27.1019 42.9848 27.0778 42.9597 27.0536C42.8948 26.9913 42.8302 26.9292 42.7395 26.9691C42.645 27.0107 42.6583 27.1146 42.6708 27.2128C42.675 27.2456 42.6791 27.2777 42.6791 27.3066C42.6791 28.9339 42.6824 30.5607 42.6858 32.1871C42.6925 35.4388 42.6992 38.689 42.6791 41.9392C42.6834 45.3623 41.4289 48.6675 39.1542 51.2255C36.8795 53.7835 33.7435 55.4156 30.3434 55.8112C27.6164 56.1414 24.8529 55.6522 22.405 54.4059C22.0001 54.2059 21.614 53.9699 21.2515 53.7007L20.9039 53.3934C20.6434 53.2593 20.4028 53.0898 20.1887 52.8897C17.9817 51.1706 16.3512 48.8196 15.5143 46.1502C15.2135 45.2023 15.0176 44.2243 14.93 43.2337C14.8637 42.5169 14.8553 41.796 14.9048 41.0779C15.0817 38.3938 16.0387 35.8198 17.6584 33.6722C19.278 31.5245 21.4898 29.8968 24.0219 28.989C25.2083 28.5637 26.447 28.301 27.7039 28.2082C28.6088 28.1418 29.5179 28.162 30.4189 28.2687C30.5398 28.2788 30.6103 28.3039 30.6103 28.45V29.9611C30.6154 29.9662 30.6808 33.8094 30.6808 35.5674V35.7537C30.6758 35.9401 30.5851 35.9854 30.4189 35.9401C29.9386 35.8099 29.4453 35.7339 28.9481 35.7134C28.1824 35.6707 27.4161 35.7856 26.6965 36.0509C24.2737 36.9425 22.8029 38.6903 22.5007 41.2038C22.1985 43.7173 23.1908 45.7271 25.2811 47.1727C25.3527 47.2286 25.4273 47.2816 25.5026 47.3351C25.5969 47.402 25.6924 47.4698 25.7848 47.5454C25.8259 47.5797 25.8646 47.6168 25.9007 47.6562C26.3886 47.8681 26.8943 48.0367 27.4118 48.1599C28.2503 48.3313 29.1147 48.3319 29.9534 48.1617C30.7921 47.9914 31.5879 47.6538 32.2932 47.169C32.9985 46.6843 33.5988 46.0623 34.0583 45.3403C34.5177 44.6182 34.8269 43.811 34.9674 42.9668C35.0253 42.6071 35.0506 42.243 35.0429 41.8788V12.4977C35.0429 12.2693 35.0263 12.1701 35.0678 12.1278C35.1086 12.0862 35.2058 12.0998 35.4308 12.0998H42.3466C42.4625 12.1023 42.5204 12.1036 42.5494 12.1332C42.5783 12.1628 42.5783 12.2207 42.5783 12.3365C42.6191 12.957 42.6982 13.5744 42.8151 14.1851C43.8225 19.1416 49.5798 22.1638 51.3579 22.4308C51.8471 22.5145 52.3424 22.5583 52.8388 22.5617Z" fill="url(#paint0_linear_5645_1479)"/>
<defs>
<linearGradient id="paint0_linear_5645_1479" x1="34" y1="0" x2="34" y2="68" gradientUnits="userSpaceOnUse">
<stop stop-color="#FAE8B2"/>
<stop offset="1" stop-color="#D1F2FF"/>
</linearGradient>
</defs>
</svg>
