<?xml version="1.0" encoding="UTF-8"?> <svg xmlns="http://www.w3.org/2000/svg" width="62" height="55" viewBox="0 0 62 55" fill="none"> <path d="M54.9678 14.0339C54.208 14.9267 53.4876 15.8392 52.6777 16.6767C52.0398 17.3374 51.2818 17.8839 50.6027 18.5071C50.4392 18.6596 50.3399 18.8683 50.3249 19.091C50.4557 24.9232 48.8287 30.2482 45.6032 35.091C42.8075 39.3574 38.7787 42.678 34.049 44.6142C31.4781 45.6657 28.7568 46.3063 25.9854 46.5124C22.6617 46.7962 19.3139 46.473 16.1066 45.5589C13.7559 44.8848 11.5115 43.8858 9.43896 42.591C9.37614 42.541 9.31631 42.4873 9.25977 42.4303C14.3488 42.8839 18.8877 41.6571 22.9965 38.5767C18.696 38.1857 15.8432 36.0303 14.2449 32.0357C15.6784 32.2142 17.0062 32.2428 18.386 31.8571C13.3023 30.5946 10.8725 26.1714 11.0105 22.6249C11.6609 22.8696 12.2935 23.1607 12.9565 23.3392C13.6412 23.5089 14.3399 23.6171 15.044 23.6624C13.1231 22.1678 11.8186 20.3035 11.281 17.9482C10.7435 15.5928 11.1251 13.3535 12.3239 11.2017C17.4094 17.166 23.819 20.4553 31.664 20.9874C31.6102 20.3464 31.5403 19.7482 31.5153 19.1482C31.268 13.2732 36.6437 8.58923 42.462 9.60887C44.3449 9.91723 46.0854 10.8001 47.4435 12.1357C47.534 12.2387 47.6532 12.3126 47.7858 12.3482C47.9185 12.3838 48.0588 12.3795 48.189 12.3357C49.9656 11.9372 51.6761 11.2884 53.269 10.4089C53.3819 10.3464 53.502 10.2928 53.7045 10.1946C52.9877 12.3714 51.6671 13.9749 49.8698 15.2982C50.4217 15.1964 50.9772 15.1196 51.5219 14.9892C52.1025 14.8553 52.6777 14.6946 53.2457 14.516C53.8138 14.3374 54.3316 14.1303 54.8728 13.9357L54.9678 14.0339Z" fill="url(#paint0_linear_3475_4944)"></path> <defs> <linearGradient id="paint0_linear_3475_4944" x1="32.1138" y1="9.46875" x2="32.1138" y2="46.6121" gradientUnits="userSpaceOnUse"> <stop stop-color="#FAE8B2"></stop> <stop offset="1" stop-color="#D1F2FF"></stop> </linearGradient> </defs> </svg> 