<?xml version="1.0" encoding="UTF-8"?> <svg xmlns="http://www.w3.org/2000/svg" width="176" height="124" viewBox="0 0 176 124" fill="none"> <path fill-rule="evenodd" clip-rule="evenodd" d="M156.7 3.7C164.3 5.8 170.3 11.8 172.3 19.4C176 33.2 176 62 176 62C176 62 176 90.8 172.4 104.6C170.3 112.3 164.4 118.3 156.8 120.3C143 124 88 124 88 124C88 124 33 124 19.3 120.3C11.7 118.2 5.7 112.2 3.7 104.6C0 90.8 0 62 0 62C0 62 0 33.2 3.6 19.4C5.7 11.7 11.6 5.7 19.2 3.7C33 0 88 0 88 0C88 0 143 0 156.7 3.7ZM116 62.0008L70 35.8008V88.2008L116 62.0008Z" fill="url(#paint0_linear_2385_4537)"></path> <defs> <linearGradient id="paint0_linear_2385_4537" x1="88" y1="115" x2="88" y2="-32" gradientUnits="userSpaceOnUse"> <stop stop-color="#DDF0E9"></stop> <stop offset="1" stop-color="#F7E9B8"></stop> </linearGradient> </defs> </svg> 