<?xml version="1.0" standalone="no"?>
<!DOCTYPE svg PUBLIC "-//W3C//DTD SVG 20010904//EN"
 "http://www.w3.org/TR/2001/REC-SVG-20010904/DTD/svg10.dtd">
<svg version="1.0" xmlns="http://www.w3.org/2000/svg"
 width="447.000000pt" height="447.000000pt" viewBox="0 0 447.000000 447.000000"
 preserveAspectRatio="xMidYMid meet">
<metadata>
Created by potrace 1.14, written by Peter Selinger 2001-2017
</metadata>
<g transform="translate(0.000000,447.000000) scale(0.100000,-0.100000)"
fill="#000000" stroke="none">
<path d="M0 2650 l0 -1819 28 4 c327 57 1881 225 2081 225 48 0 75 13 49 23
-7 3 0 6 15 6 26 1 47 -22 33 -36 -3 -3 -111 -14 -238 -24 -128 -10 -280 -22
-338 -28 -58 -6 -198 -20 -311 -31 -264 -26 -514 -55 -859 -99 -302 -39 -395
-52 -428 -57 l-32 -6 0 -404 0 -404 2235 0 2235 0 0 440 0 439 -147 4 -148 3
148 2 147 2 0 114 0 114 -147 7 c-142 8 -502 3 -910 -11 l-192 -7 -6 29 c-36
174 -79 306 -100 307 -5 0 -20 -15 -33 -34 -12 -19 -29 -41 -36 -50 -19 -24
-232 -52 -556 -74 -47 -4 -132 -10 -190 -16 -273 -24 -393 -29 -757 -32 -311
-3 -398 -1 -423 10 -46 19 -56 17 -70 -17 -11 -26 -10 -33 5 -50 14 -15 34
-20 99 -23 l81 -3 -81 -2 c-70 -2 -85 1 -109 19 -35 28 -36 23 81 377 97 294
141 459 214 802 23 107 52 236 65 285 13 50 29 149 35 220 7 72 13 131 15 133
1 1 63 22 136 45 132 42 134 43 134 72 0 22 -8 35 -33 51 -31 22 -169 70 -186
65 -12 -3 2 117 22 181 12 39 16 99 18 233 2 223 27 355 67 355 41 0 158 -101
397 -340 215 -214 613 -788 785 -1130 58 -116 130 -290 146 -355 7 -28 26 -70
42 -94 34 -49 90 -178 102 -231 l7 -34 -26 17 c-23 16 -26 16 -26 2 0 -25 19
-57 55 -91 22 -21 38 -50 49 -90 9 -32 39 -130 67 -216 27 -86 58 -189 67
-228 l16 -70 166 7 c91 5 355 8 587 8 l423 0 0 1663 0 1662 -2235 0 -2235 0 0
-1820z m1273 -1497 c-7 -2 -19 -2 -25 0 -7 3 -2 5 12 5 14 0 19 -2 13 -5z m50
0 c-7 -2 -19 -2 -25 0 -7 3 -2 5 12 5 14 0 19 -2 13 -5z m150 0 c-23 -2 -64
-2 -90 0 -26 2 -7 3 42 3 50 0 71 -1 48 -3z m195 -10 c-15 -2 -42 -2 -60 0
-18 2 -6 4 27 4 33 0 48 -2 33 -4z m130 -10 c-10 -2 -28 -2 -40 0 -13 2 -5 4
17 4 22 1 32 -1 23 -4z m105 -10 c-13 -2 -33 -2 -45 0 -13 2 -3 4 22 4 25 0
35 -2 23 -4z m85 -10 c-10 -2 -26 -2 -35 0 -10 3 -2 5 17 5 19 0 27 -2 18 -5z
m80 -10 c-10 -2 -26 -2 -35 0 -10 3 -2 5 17 5 19 0 27 -2 18 -5z m69 -9 c-3
-3 -12 -4 -19 -1 -8 3 -5 6 6 6 11 1 17 -2 13 -5z m856 -191 c-72 -2 -194 -2
-270 0 -76 1 -16 3 132 3 149 0 211 -2 138 -3z m174 1 c-3 -3 -12 -4 -19 -1
-8 3 -5 6 6 6 11 1 17 -2 13 -5z m50 0 c-3 -3 -12 -4 -19 -1 -8 3 -5 6 6 6 11
1 17 -2 13 -5z m225 -1 c-40 -2 -103 -2 -140 0 -37 2 -4 3 73 3 77 0 107 -2
67 -3z m-1109 -10 c-24 -2 -62 -2 -85 0 -24 2 -5 4 42 4 47 0 66 -2 43 -4z
m1660 0 c-29 -2 -77 -2 -105 0 -29 2 -6 3 52 3 58 0 81 -1 53 -3z m-1915 -10
c-21 -2 -55 -2 -75 0 -21 2 -4 4 37 4 41 0 58 -2 38 -4z m-290 -10 c-16 -2
-40 -2 -55 0 -16 2 -3 4 27 4 30 0 43 -2 28 -4z m-170 -10 c-15 -2 -42 -2 -60
0 -18 2 -6 4 27 4 33 0 48 -2 33 -4z m-225 -10 c-13 -2 -35 -2 -50 0 -16 2 -5
4 22 4 28 0 40 -2 28 -4z m-160 -10 c-13 -2 -35 -2 -50 0 -16 2 -5 4 22 4 28
0 40 -2 28 -4z m-195 -10 c-10 -2 -28 -2 -40 0 -13 2 -5 4 17 4 22 1 32 -1 23
-4z m-120 -10 c-16 -2 -40 -2 -55 0 -16 2 -3 4 27 4 30 0 43 -2 28 -4z m-190
-10 c-10 -2 -26 -2 -35 0 -10 3 -2 5 17 5 19 0 27 -2 18 -5z m49 1 c-3 -3 -12
-4 -19 -1 -8 3 -5 6 6 6 11 1 17 -2 13 -5z m-164 -11 c-13 -2 -35 -2 -50 0
-16 2 -5 4 22 4 28 0 40 -2 28 -4z m-150 -10 c-13 -2 -33 -2 -45 0 -13 2 -3 4
22 4 25 0 35 -2 23 -4z m-105 -10 c-16 -2 -40 -2 -55 0 -16 2 -3 4 27 4 30 0
43 -2 28 -4z m-150 -10 c-10 -2 -26 -2 -35 0 -10 3 -2 5 17 5 19 0 27 -2 18
-5z m-110 -10 c-16 -2 -40 -2 -55 0 -16 2 -3 4 27 4 30 0 43 -2 28 -4z"/>
<path d="M2619 2658 c-13 -14 -31 -35 -39 -47 -12 -18 -37 -25 -130 -41 -63
-11 -169 -24 -235 -31 -66 -6 -158 -15 -205 -19 -47 -5 -152 -13 -235 -19 -82
-6 -175 -13 -205 -17 -53 -6 -57 -5 -99 30 -23 20 -47 36 -52 36 -4 0 -13 -17
-18 -38 -17 -61 -58 -253 -65 -299 -7 -50 -2 -50 80 4 46 31 61 35 160 43 60
5 174 16 254 24 80 8 210 19 290 26 80 6 189 15 243 20 54 6 151 10 216 10
114 0 122 -1 177 -31 47 -24 60 -28 62 -16 6 31 -87 248 -151 351 l-25 39 -23
-25z"/>
</g>
</svg>
