<svg width="67" height="62" viewBox="0 0 67 62" fill="none" xmlns="http://www.w3.org/2000/svg">
<path d="M62.7854 1L37.3931 19.7885L42.115 8.71583L62.7854 1Z" fill="#E17726" stroke="#E17726" stroke-width="0.25" stroke-linecap="round" stroke-linejoin="round"/>
<path d="M4.21475 1L29.381 19.9639L24.8853 8.71581L4.21475 1Z" fill="#E27625" stroke="#E27625" stroke-width="0.25" stroke-linecap="round" stroke-linejoin="round"/>
<path d="M53.6426 44.5641L46.8864 54.8853L61.3532 58.8685L65.4975 44.7898L53.6426 44.5641Z" fill="#E27625" stroke="#E27625" stroke-width="0.25" stroke-linecap="round" stroke-linejoin="round"/>
<path d="M1.52719 44.7898L5.64619 58.8685L20.0879 54.8853L13.3568 44.5641L1.52719 44.7898Z" fill="#E27625" stroke="#E27625" stroke-width="0.25" stroke-linecap="round" stroke-linejoin="round"/>
<path d="M19.3093 27.1284L15.2908 33.1909L29.6068 33.8422L29.1297 18.4357L19.3093 27.1284Z" fill="#E27625" stroke="#E27625" stroke-width="0.25" stroke-linecap="round" stroke-linejoin="round"/>
<path d="M47.69 27.1287L37.7191 18.2606L37.3926 33.8425L51.7086 33.1912L47.69 27.1287Z" fill="#E27625" stroke="#E27625" stroke-width="0.25" stroke-linecap="round" stroke-linejoin="round"/>
<path d="M20.0881 54.8852L28.753 50.7018L21.2937 44.8898L20.0881 54.8852Z" fill="#E27625" stroke="#E27625" stroke-width="0.25" stroke-linecap="round" stroke-linejoin="round"/>
<path d="M38.2469 50.7018L46.8867 54.8852L45.7062 44.8898L38.2469 50.7018Z" fill="#E27625" stroke="#E27625" stroke-width="0.25" stroke-linecap="round" stroke-linejoin="round"/>
<path d="M46.8867 54.8855L38.2469 50.702L38.9501 56.3135L38.8747 58.6934L46.8867 54.8855Z" fill="#D5BFB2" stroke="#D5BFB2" stroke-width="0.25" stroke-linecap="round" stroke-linejoin="round"/>
<path d="M20.0881 54.8855L28.1253 58.6934L28.075 56.3135L28.753 50.702L20.0881 54.8855Z" fill="#D5BFB2" stroke="#D5BFB2" stroke-width="0.25" stroke-linecap="round" stroke-linejoin="round"/>
<path d="M28.2757 41.1823L21.0925 39.0781L26.1659 36.7483L28.2757 41.1823Z" fill="#233447" stroke="#233447" stroke-width="0.25" stroke-linecap="round" stroke-linejoin="round"/>
<path d="M38.7241 41.1823L40.8339 36.7483L45.9325 39.0781L38.7241 41.1823Z" fill="#233447" stroke="#233447" stroke-width="0.25" stroke-linecap="round" stroke-linejoin="round"/>
<path d="M20.088 54.8853L21.3438 44.5641L13.3569 44.7898L20.088 54.8853Z" fill="#CC6228" stroke="#CC6228" stroke-width="0.25" stroke-linecap="round" stroke-linejoin="round"/>
<path d="M45.6559 44.5641L46.8866 54.8853L53.6428 44.7898L45.6559 44.5641Z" fill="#CC6228" stroke="#CC6228" stroke-width="0.25" stroke-linecap="round" stroke-linejoin="round"/>
<path d="M51.7086 33.1909L37.3926 33.8422L38.7237 41.1824L40.8335 36.7482L45.932 39.078L51.7086 33.1909Z" fill="#CC6228" stroke="#CC6228" stroke-width="0.25" stroke-linecap="round" stroke-linejoin="round"/>
<path d="M21.0925 39.078L26.1659 36.7482L28.2758 41.1824L29.6068 33.8422L15.2908 33.1909L21.0925 39.078Z" fill="#CC6228" stroke="#CC6228" stroke-width="0.25" stroke-linecap="round" stroke-linejoin="round"/>
<path d="M15.2913 33.1909L21.294 44.8899L21.093 39.078L15.2913 33.1909Z" fill="#E27525" stroke="#E27525" stroke-width="0.25" stroke-linecap="round" stroke-linejoin="round"/>
<path d="M45.9324 39.078L45.7064 44.8899L51.7091 33.1909L45.9324 39.078Z" fill="#E27525" stroke="#E27525" stroke-width="0.25" stroke-linecap="round" stroke-linejoin="round"/>
<path d="M29.6077 33.8422L28.2764 41.1824L29.9592 49.85L30.336 38.4267L29.6077 33.8422Z" fill="#E27525" stroke="#E27525" stroke-width="0.25" stroke-linecap="round" stroke-linejoin="round"/>
<path d="M37.3931 33.8422L36.6898 38.4017L37.0414 49.85L38.7242 41.1824L37.3931 33.8422Z" fill="#E27525" stroke="#E27525" stroke-width="0.25" stroke-linecap="round" stroke-linejoin="round"/>
<path d="M38.7242 41.1825L37.0415 49.8501L38.2471 50.702L45.7066 44.89L45.9326 39.0781L38.7242 41.1825Z" fill="#F5841F" stroke="#F5841F" stroke-width="0.25" stroke-linecap="round" stroke-linejoin="round"/>
<path d="M21.0925 39.0781L21.2936 44.89L28.7529 50.702L29.9585 49.8501L28.2757 41.1825L21.0925 39.0781Z" fill="#F5841F" stroke="#F5841F" stroke-width="0.25" stroke-linecap="round" stroke-linejoin="round"/>
<path d="M38.8749 58.6932L38.9501 56.3133L38.2972 55.7621H28.7029L28.075 56.3133L28.1253 58.6932L20.0881 54.8854L22.9011 57.1901L28.6024 61.1232H38.3724L44.0989 57.1901L46.8867 54.8854L38.8749 58.6932Z" fill="#C0AC9D" stroke="#C0AC9D" stroke-width="0.25" stroke-linecap="round" stroke-linejoin="round"/>
<path d="M38.2468 50.7017L37.0412 49.8501H29.9585L28.7531 50.7017L28.0749 56.3134L28.7028 55.7622H38.297L38.9501 56.3134L38.2468 50.7017Z" fill="#161616" stroke="#161616" stroke-width="0.25" stroke-linecap="round" stroke-linejoin="round"/>
<path d="M63.865 21.016L66 10.6448L62.7851 1L38.2469 19.1623L47.6904 27.1285L61.0269 31.0116L63.9656 27.5796L62.6847 26.6525L64.719 24.7989L63.1619 23.5964L65.1963 22.0431L63.865 21.016Z" fill="#763E1A" stroke="#763E1A" stroke-width="0.25" stroke-linecap="round" stroke-linejoin="round"/>
<path d="M1 10.6448L3.15997 21.016L1.7786 22.0431L3.8381 23.5964L2.28092 24.7989L4.3153 26.6525L3.03438 27.5796L5.97296 31.0116L19.3096 27.1285L28.7531 19.1623L4.21485 1L1 10.6448Z" fill="#763E1A" stroke="#763E1A" stroke-width="0.25" stroke-linecap="round" stroke-linejoin="round"/>
<path d="M61.0271 31.0113L47.6905 27.1285L51.7091 33.191L45.7064 44.8898L53.643 44.7897H65.4977L61.0271 31.0113Z" fill="#F5841F" stroke="#F5841F" stroke-width="0.25" stroke-linecap="round" stroke-linejoin="round"/>
<path d="M19.3092 27.1285L5.97271 31.0113L1.52719 44.7897H13.3568L21.2933 44.8898L15.2907 33.191L19.3092 27.1285Z" fill="#F5841F" stroke="#F5841F" stroke-width="0.25" stroke-linecap="round" stroke-linejoin="round"/>
<path d="M37.3928 33.8423L38.2467 19.1621L42.1145 8.71576H24.885L28.7528 19.1621L29.6068 33.8423L29.9333 38.4517L29.9584 49.8501H37.0411L37.0663 38.4517L37.3928 33.8423Z" fill="#F5841F" stroke="#F5841F" stroke-width="0.25" stroke-linecap="round" stroke-linejoin="round"/>
</svg>
