<svg width="186" height="114" viewBox="0 0 186 114" fill="none" xmlns="http://www.w3.org/2000/svg">
<path d="M38.5181 22.6033C68.6651 -6.91969 117.532 -6.91969 147.718 22.6033L151.345 26.1523C152.866 27.6343 152.866 30.0133 151.345 31.4953L138.943 43.6633C138.202 44.4043 136.954 44.4043 136.213 43.6633L131.221 38.7883C110.2 18.1963 76.0751 18.1963 55.0541 38.7883L49.7111 44.0143C48.9701 44.7553 47.7221 44.7553 46.9811 44.0143L34.5401 31.8463C33.0191 30.3643 33.0191 27.9853 34.5401 26.5033L38.5181 22.6033ZM173.38 47.7193L184.417 58.5223C185.938 60.0043 185.938 62.3833 184.417 63.8653L134.614 112.654C133.093 114.136 130.675 114.136 129.154 112.654L93.7811 78.0223C93.3911 77.6713 92.8061 77.6713 92.4161 78.0223L57.0821 112.654C55.5611 114.136 53.1431 114.136 51.6221 112.654L1.78006 63.9043C0.259063 62.4223 0.259063 60.0433 1.78006 58.5613L12.8171 47.7583C14.3381 46.2763 16.7561 46.2763 18.2771 47.7583L53.6501 82.3903C54.0401 82.7413 54.6251 82.7413 55.0151 82.3903L90.3491 47.7583C91.8701 46.2763 94.2881 46.2763 95.8091 47.7583L131.182 82.3903C131.572 82.7413 132.157 82.7413 132.547 82.3903L167.92 47.7583C169.402 46.2373 171.859 46.2373 173.38 47.7193Z" fill="#3A99FB"/>
</svg>
