<svg width="79" height="59" viewBox="0 0 79 59" fill="none" xmlns="http://www.w3.org/2000/svg">
<path fill-rule="evenodd" clip-rule="evenodd" d="M32.8344 0.404637C33.4729 0.674396 34.0534 1.05976 34.5371 1.56074C35.5239 2.5627 36.0656 3.9115 36.0656 5.31809C36.0656 6.72469 35.5239 8.07348 34.5565 9.07544L8.97771 34.9915C8.494 35.4925 7.91354 35.8779 7.27504 36.1476C6.63654 36.4174 5.95934 36.5523 5.2628 36.5523C4.5856 36.5523 3.88905 36.4174 3.25055 36.1476C2.61205 35.8971 2.03159 35.4925 1.54788 35.0108C1.06417 34.5098 0.677198 33.9317 0.406319 33.2766C0.13544 32.6408 0 31.9471 0 31.2342C0 30.5405 0.13544 29.8468 0.38697 29.211C0.65785 28.5558 1.04482 27.9778 1.52853 27.4768L27.1073 1.56074C27.591 1.05976 28.1714 0.674396 28.8099 0.404637C29.4484 0.134879 30.1256 0 30.8222 0C31.4994 0 32.1959 0.134879 32.8344 0.404637V0.404637ZM54.5048 1.38733C55.1433 1.65709 55.7237 2.04246 56.2268 2.54344C56.7105 3.02515 57.0975 3.62247 57.3684 4.2776C57.6392 4.91346 57.7747 5.62639 57.7747 6.32005C57.7747 7.01372 57.6392 7.72665 57.3684 8.36251C57.0975 9.01764 56.7105 9.59569 56.2268 10.0967L30.6867 35.9549C29.7 36.9569 28.3649 37.5157 26.9718 37.5157C25.5787 37.5157 24.2437 36.9569 23.2569 35.9549C22.2701 34.9722 21.709 33.6042 21.709 32.1976C21.709 30.7717 22.2508 29.4229 23.2376 28.421L48.7776 2.54344C49.2807 2.04246 49.8611 1.65709 50.4803 1.38733C51.1188 1.11757 51.8153 0.982691 52.4925 0.982691C53.1891 0.982691 53.8663 1.11757 54.5048 1.38733V1.38733ZM73.7372 22.467C75.1303 22.467 76.4847 23.0258 77.4521 24.0278C77.9552 24.5287 78.3421 25.1068 78.5937 25.7619C78.8646 26.3978 79 27.0914 79 27.8044C79 28.498 78.8646 29.1917 78.5937 29.8276C78.3421 30.4827 77.9552 31.0607 77.4521 31.5617L51.9121 57.4393C50.9446 58.4412 49.5903 59 48.1972 59C46.8041 59 45.469 58.4412 44.4822 57.4393C43.4955 56.4373 42.9537 55.0885 42.9537 53.6819C42.9537 52.256 43.4955 50.9072 44.4822 49.9053L70.0223 24.0278C71.0091 23.0258 72.3441 22.467 73.7372 22.467V22.467ZM56.4783 23.758C55.9946 23.257 55.4142 22.8717 54.7757 22.6019C54.1372 22.3321 53.46 22.1973 52.7634 22.1973C52.0669 22.1973 51.3897 22.3321 50.7512 22.6019C50.1127 22.8717 49.5322 23.257 49.0485 23.758L23.4698 49.6741C22.483 50.676 21.9412 52.0248 21.9412 53.4507C21.9412 54.8573 22.483 56.2061 23.4698 57.208C24.4565 58.21 25.8109 58.7688 27.204 58.7688C28.5971 58.7688 29.9322 58.21 30.9189 57.208L56.4783 31.292C56.962 30.8103 57.349 30.2129 57.6199 29.5771C57.8908 28.9219 58.0262 28.2283 58.0262 27.5346C58.0262 26.8217 57.8908 26.128 57.6199 25.4922C57.349 24.837 56.962 24.259 56.4783 23.758Z" fill="url(#paint0_linear_1836_13862)"/>
<defs>
<linearGradient id="paint0_linear_1836_13862" x1="0" y1="0" x2="83.6961" y2="7.55734" gradientUnits="userSpaceOnUse">
<stop stop-color="#2A88F6"/>
<stop offset="1" stop-color="#4B77EA"/>
</linearGradient>
</defs>
</svg>
