<?xml version="1.0" encoding="UTF-8"?>
<svg xmlns="http://www.w3.org/2000/svg" xmlns:xlink="http://www.w3.org/1999/xlink" viewBox="0 0 80 80" width="80px" height="80px">
    <g id="surface53070292">
        <path style=" stroke:none;fill-rule:nonzero;fill:rgb(16.078432%,71.372551%,96.470588%);fill-opacity:1;" d="M 40 6.667969 C 21.589844 6.667969 6.667969 21.589844 6.667969 40 C 6.667969 58.410156 21.589844 73.332031 40 73.332031 C 58.410156 73.332031 73.332031 58.410156 73.332031 40 C 73.332031 21.589844 58.410156 6.667969 40 6.667969 Z M 40 6.667969 "/>
        <path style=" stroke:none;fill-rule:nonzero;fill:rgb(100%,100%,100%);fill-opacity:1;" d="M 56.582031 25 L 50.339844 56.875 C 50.339844 56.875 50.070312 58.332031 48.265625 58.332031 C 47.304688 58.332031 46.808594 57.875 46.808594 57.875 L 33.285156 46.65625 L 26.671875 43.320312 L 18.179688 41.0625 C 18.179688 41.0625 16.667969 40.625 16.667969 39.375 C 16.667969 38.332031 18.222656 37.835938 18.222656 37.835938 L 53.75 23.722656 C 53.746094 23.722656 54.832031 23.332031 55.625 23.332031 C 56.113281 23.332031 56.667969 23.542969 56.667969 24.167969 C 56.667969 24.582031 56.582031 25 56.582031 25 Z M 56.582031 25 "/>
        <path style=" stroke:none;fill-rule:nonzero;fill:rgb(69.01961%,74.509805%,77.254903%);fill-opacity:1;" d="M 38.332031 50.839844 L 32.625 56.464844 C 32.625 56.464844 32.375 56.65625 32.042969 56.664062 C 31.929688 56.667969 31.804688 56.648438 31.679688 56.59375 L 33.285156 46.652344 Z M 38.332031 50.839844 "/>
        <path style=" stroke:none;fill-rule:nonzero;fill:rgb(81.176472%,84.705883%,86.274511%);fill-opacity:1;" d="M 49.828125 30.328125 C 49.546875 29.960938 49.027344 29.894531 48.660156 30.171875 L 26.667969 43.332031 C 26.667969 43.332031 30.175781 53.152344 30.710938 54.851562 C 31.25 56.554688 31.679688 56.59375 31.679688 56.59375 L 33.285156 46.652344 L 49.671875 31.492188 C 50.039062 31.214844 50.105469 30.691406 49.828125 30.328125 Z M 49.828125 30.328125 "/>
    </g>
</svg>
