<svg width="60" height="58" viewBox="0 0 60 58" fill="none" xmlns="http://www.w3.org/2000/svg">
<path d="M8.95 51.2237H44.5975L42.895 45.8949L46.9675 49.2734L50.7 52.5069L57.5 58V5.98125C57.33 2.74775 54.45 0 50.88 0L8.9625 0.00725C5.395 0.00725 2.5 2.75983 2.5 5.99333V45.24C2.5 48.6499 5.39 51.2237 8.95 51.2237ZM35.32 13.7339L35.2375 13.7629L35.2675 13.7339H35.32ZM16.2425 16.8007C20.825 13.5768 25.0725 13.7315 25.0725 13.7315L25.415 14.0578C19.8075 15.3507 17.265 17.7722 17.265 17.7722C17.265 17.7722 17.945 17.4508 19.1325 16.9602C26.685 14.0892 34.9325 14.297 42.5675 17.9317C42.5675 17.9317 40.02 15.6673 34.7575 14.2172L35.2225 13.775C35.95 13.7774 39.8 13.9079 43.92 16.82C43.92 16.82 48.53 24.4325 48.53 33.785C48.3775 33.6062 45.67 37.8112 38.7025 37.9562C38.7025 37.9562 37.5225 36.6657 36.6825 35.5395C40.7575 34.4085 42.2825 32.1465 42.2825 32.1465C40.945 32.9609 39.725 33.4442 38.735 33.9276C37.2125 34.5752 35.6875 34.8943 34.165 35.2205C26.955 36.3515 22.9075 34.4593 19.0825 32.9585L17.775 32.3157C17.775 32.3157 19.2975 34.5777 23.21 35.7087C22.1825 36.8421 21.165 38.1302 21.165 38.1302C14.2 37.9707 11.66 33.7657 11.66 33.7657C11.66 24.3987 16.2425 16.8007 16.2425 16.8007Z" fill="#05F0F3"/>
<path d="M35.7699 30.865C37.5474 30.865 38.9949 29.415 38.9949 27.6266C38.9949 25.8504 37.5549 24.4004 35.7699 24.4004V24.4076C33.9999 24.4076 32.5499 25.8528 32.5449 27.6411C32.5449 29.415 33.9924 30.865 35.7699 30.865Z" fill="#05F0F3"/>
<path d="M24.225 30.865C26.0025 30.865 27.45 29.415 27.45 27.6266C27.45 25.8504 26.0125 24.4004 24.235 24.4004L24.225 24.4076C22.4475 24.4076 21 25.8528 21 27.6411C21 29.415 22.4475 30.865 24.225 30.865Z" fill="#05F0F3"/>
</svg>
