<svg width="60" height="58" viewBox="0 0 60 58" fill="none" xmlns="http://www.w3.org/2000/svg">
<path d="M23.0982 50.3468C23.1643 50.059 23.1963 49.8841 23.2441 49.7137C24.4303 45.5414 25.6201 41.3706 26.8139 37.2013C26.9034 36.9226 27.0597 36.6685 27.27 36.4597C33.2934 30.3335 39.3212 24.2123 45.3537 18.0964C45.5955 17.8625 45.8174 17.61 46.0175 17.3415C46.2206 17.0596 46.325 16.7217 46.3156 16.3779C46.3062 16.034 46.1832 15.7021 45.965 15.431C45.7485 15.1586 45.4487 14.9599 45.1085 14.8632C44.7684 14.7665 44.4055 14.777 44.0718 14.893C43.8055 14.9887 43.5484 15.1064 43.3031 15.245C33.5207 20.5094 23.7422 25.779 13.9674 31.0537C13.8065 31.1565 13.6204 31.216 13.428 31.2261C13.2356 31.2363 13.0439 31.1966 12.8725 31.1112C9.6792 29.7365 6.48577 28.3927 3.29244 27.0224C1.07303 26.0682 0.327156 23.684 1.66837 21.8421C2.18159 21.1315 2.91377 20.7352 3.74858 20.4718C14.5544 17.0138 25.3624 13.55 36.1727 10.0803L54.4434 4.23367C56.786 3.48543 58.9209 4.58566 59.3225 6.79723C59.4046 7.34351 59.3752 7.90023 59.2357 8.43544C55.8736 22.3719 52.5007 36.3062 49.1173 50.2383C48.433 53.0675 45.5042 54.0505 43.1753 52.2152C39.7082 49.4834 36.2534 46.7369 32.8106 43.9755C32.4639 43.6988 32.2563 43.6966 31.8982 43.9556C29.1724 45.9613 26.4238 47.9404 23.6867 49.9328C23.5316 50.0502 23.365 50.1631 23.0982 50.3468Z" fill="#05F0F3"/>
<path d="M35.2282 23.5519L33.9349 24.8802C30.7826 28.0813 27.6166 31.2692 24.4893 34.4925C24.0824 34.9222 23.7835 35.4374 23.6157 35.9978C22.3315 40.3811 21.0884 44.7866 19.8225 49.1876C19.7929 49.2894 19.7517 49.3868 19.6559 49.6547C19.3458 48.2711 19.0675 47.0491 18.796 45.827C17.9353 41.9559 17.0739 38.0847 16.2117 34.2135C16.1364 33.8748 16.1364 33.6557 16.5128 33.4542C22.6288 30.1763 28.7403 26.8896 34.8472 23.594C34.9408 23.5431 35.0434 23.5055 35.1416 23.4612L35.2282 23.5519Z" fill="#05F0F3"/>
</svg>
