<svg width="60" height="58" viewBox="0 0 60 58" fill="none" xmlns="http://www.w3.org/2000/svg">
<path d="M59 11.6537C58.0359 12.7594 57.1218 13.8895 56.094 14.9267C55.2846 15.7449 54.3228 16.4217 53.4609 17.1935C53.2535 17.3824 53.1275 17.6409 53.1086 17.9167C53.2745 25.1394 51.21 31.7341 47.1171 37.7317C43.5696 43.0154 38.4573 47.1278 32.4556 49.5257C29.1934 50.8279 25.7402 51.6212 22.2236 51.8765C18.006 52.2279 13.758 51.8277 9.68812 50.6956C6.70517 49.8608 3.8573 48.6236 1.22737 47.0201C1.14768 46.9581 1.07171 46.8916 1 46.821C7.45751 47.3827 13.2171 45.8634 18.4309 42.0486C12.9737 41.5643 9.35387 38.895 7.32567 33.9478C9.14471 34.169 10.8296 34.2044 12.5804 33.7267C6.12961 32.1631 3.04641 26.6852 3.22151 22.2932C4.04691 22.5962 4.84949 22.9567 5.69084 23.1778C6.55973 23.3879 7.44627 23.5219 8.33977 23.5781C5.90225 21.7271 4.24696 19.4182 3.56486 16.5012C2.88265 13.5844 3.36694 10.8111 4.88815 8.14623C11.3412 15.5327 19.4745 19.6062 29.4293 20.2652C29.3611 19.4714 29.2724 18.7305 29.2406 17.9874C28.9268 10.7115 35.7481 4.91079 43.1311 6.17352C45.5203 6.55542 47.7289 7.64876 49.4523 9.30281C49.5672 9.43041 49.7183 9.52202 49.8867 9.56607C50.055 9.61023 50.233 9.60478 50.3982 9.55052C52.6526 9.05703 54.8231 8.25362 56.8445 7.16436C56.9877 7.08693 57.1401 7.02052 57.397 6.89894C56.4874 9.59479 54.8117 11.5807 52.531 13.2194C53.2313 13.0934 53.9362 12.9982 54.6274 12.8368C55.3642 12.6709 56.094 12.4719 56.8148 12.2508C57.5357 12.0297 58.1928 11.7731 58.8794 11.5321L59 11.6537Z" fill="#0BF5FE"/>
</svg>
